<svg width="140" height="48" viewBox="0 0 140 48"><path d="M6.923 14.304h4.704V32H6.923V14.304zm7.787 0h6.015l5.505 11.808h.128l5.951-11.808h5.665V32H33.27V20.864L28.117 32h-3.776l-5.056-11.136V32H14.71V14.304zm26.157 6.624h10.08v4.128h-10.08v-4.128zm12.95-6.624H64.28c2.154 0 3.925.661 5.311 1.984 1.387 1.301 2.08 2.987 2.08 5.056 0 2.07-.693 3.733-2.08 4.992-1.386 1.259-3.157 1.888-5.311 1.888h-5.76V32h-4.705V14.304zm4.703 4.288v5.344h5.568c.854 0 1.537-.224 2.049-.672.533-.448.8-1.088.8-1.92 0-.832-.267-1.493-.8-1.984-.513-.512-1.195-.768-2.049-.768h-5.567zm21.757.768c-.981.96-1.472 2.23-1.472 3.808 0 1.579.49 2.859 1.472 3.84 1.003.96 2.261 1.44 3.776 1.44 1.493 0 2.73-.48 3.712-1.44 1.003-.981 1.504-2.261 1.504-3.84 0-1.579-.501-2.848-1.504-3.808-.981-.981-2.219-1.472-3.712-1.472-1.515 0-2.773.49-3.776 1.472zm10.784-2.848c1.963 1.75 2.944 3.968 2.944 6.656 0 2.688-.981 4.907-2.944 6.656-1.963 1.75-4.299 2.624-7.008 2.624-2.71 0-5.045-.875-7.008-2.624-1.963-1.75-2.944-3.968-2.944-6.656 0-2.688.981-4.907 2.944-6.656 1.963-1.75 4.299-2.624 7.008-2.624 2.71 0 5.045.875 7.008 2.624zm5.893-2.208h10.464c2.155 0 3.925.661 5.312 1.984 1.387 1.301 2.08 2.987 2.08 5.056 0 2.603-1.067 4.544-3.2 5.824L114.298 32h-5.12l-2.016-3.776h-5.504V32h-4.704V14.304zm4.704 4.288v5.344h5.568c.853 0 1.536-.224 2.048-.672.533-.448.8-1.088.8-1.92 0-.832-.267-1.493-.8-1.984-.512-.512-1.195-.768-2.048-.768h-5.568zm14.477-4.288h18.496v4.224h-6.88V32h-4.736V18.528h-6.88v-4.224z" fill="#1C1B1F"/></svg>