<svg width="130" height="86" viewBox="0 0 130 86" fill="none" xmlns="http://www.w3.org/2000/svg"><g clip-path="url(#clip0_718_118050)"><path d="M65.5 32.25h49.944l1.792-7.167h-44.57v-7.166h49.163a3.582 3.582 0 013.476 4.454l-8.958 35.833a3.586 3.586 0 01-3.476 2.712H61.916a3.583 3.583 0 01-3.583-3.583v-43h-7.167V7.166h10.75a3.583 3.583 0 013.583 3.584v21.5zm0 50.166a7.167 7.167 0 110-14.333 7.167 7.167 0 010 14.334zm42.999 0a7.167 7.167 0 11.001-14.333 7.167 7.167 0 01-.001 14.334z" fill="#1C1B1F" fill-opacity=".68"/></g><path fill="#1C1B1F" fill-opacity=".12" d="M0 26h51v7H0zm24 14h27v7H24zm-9 14h36v7H15z"/><defs><clipPath id="clip0_718_118050"><path fill="#fff" transform="translate(44)" d="M0 0h86v86H0z"/></clipPath></defs></svg>