<?xml version="1.0" encoding="utf-8"?><svg viewBox="0 0 48 48" xmlns="http://www.w3.org/2000/svg" xmlns:xlink="http://www.w3.org/1999/xlink"><style>:root>svg{display:none}:root>svg:target{display:block}</style><svg fill="currentColor" viewBox="0 0 24 24" id="icon-arrow-btn" xmlns="http://www.w3.org/2000/svg"><g clip-path="url(#aclip0_105_48521)"><path d="M16.172 11H4v2h12.172l-5.364 5.364 1.414 1.414L20 12l-7.778-7.778-1.414 1.414L16.172 11z"/></g><defs><clipPath id="aclip0_105_48521"><path d="M0 0h24v24H0z"/></clipPath></defs></svg><svg viewBox="0 0 24 24" id="icon-arrow-left"><g clip-path="url(#bclip0_2_5950)"><path d="M7.828 11H20v2H7.828l5.364 5.364-1.414 1.414L4 12l7.778-7.778 1.414 1.414L7.828 11z" fill="currentColor"/></g><defs><clipPath id="bclip0_2_5950"><path fill="currentColor" d="M0 0h24v24H0z"/></clipPath></defs></svg><svg viewBox="0 0 24 24" id="icon-arrow-right"><g clip-path="url(#cclip0_2_71696)"><path d="M16.172 11H4v2h12.172l-5.364 5.364 1.414 1.414L20 12l-7.778-7.778-1.414 1.414L16.172 11z" fill="currentColor"/></g><defs><clipPath id="cclip0_2_71696"><path fill="currentColor" d="M0 0h24v24H0z"/></clipPath></defs></svg><svg viewBox="0 0 36 36" id="icon-back"><g clip-path="url(#dclip0_718_119528)"><path d="M5.742 16.5H24v3H5.742l8.046 8.046-2.121 2.121L0 18 11.667 6.333l2.121 2.121L5.742 16.5z" fill="currentColor"/></g><defs><clipPath id="dclip0_718_119528"><path fill="currentColor" d="M0 0h36v36H0z"/></clipPath></defs></svg><svg viewBox="0 0 48 48" id="icon-cart"><g clip-path="url(#eclip0_718_116944)"><path d="M14 16v-4a10 10 0 0120 0v4h6a2 2 0 012 2v24a2 2 0 01-2 2H8a2 2 0 01-2-2V18a2 2 0 012-2h6zm0 4h-4v20h28V20h-4v4h-4v-4H18v4h-4v-4zm4-4h12v-4a6 6 0 10-12 0v4z" fill="currentColor"/></g><defs><clipPath id="eclip0_718_116944"><path fill="currentColor" d="M0 0h48v48H0z"/></clipPath></defs></svg><svg viewBox="0 0 32 32" id="icon-cross"><g clip-path="url(#fclip0_718_119300)"><path d="M16 14.115l6.6-6.6L24.485 9.4l-6.6 6.6 6.6 6.6-1.885 1.885-6.6-6.6-6.6 6.6L7.515 22.6l6.6-6.6-6.6-6.6L9.4 7.515l6.6 6.6z" fill="currentColor"/></g><defs><clipPath id="fclip0_718_119300"><path fill="currentColor" d="M0 0h32v32H0z"/></clipPath></defs></svg><svg viewBox="0 0 18 18" id="icon-geo"><path d="M9 15.675l3.713-3.713a5.25 5.25 0 10-7.425 0L9 15.675zm0 2.12l-4.773-4.772a6.75 6.75 0 119.546 0L9 17.796zM9 9.75a1.5 1.5 0 100-3 1.5 1.5 0 000 3zm0 1.5a3 3 0 110-6 3 3 0 010 6z" fill="currentColor"/></svg><svg viewBox="0 0 18 18" id="icon-globe"><g clip-path="url(#hclip0_33_55458)"><path d="M9 16.5a7.5 7.5 0 110-15 7.5 7.5 0 010 15zm-1.718-1.75a13.424 13.424 0 01-1.262-5H3.047a6.006 6.006 0 004.236 5zm.24-5c.114 1.83.636 3.547 1.478 5.064a11.929 11.929 0 001.477-5.064H7.522zm7.431 0H11.98a13.424 13.424 0 01-1.263 5 6.006 6.006 0 004.236-5zM3.047 8.25H6.02c.094-1.733.523-3.43 1.263-5a6.006 6.006 0 00-4.237 5zm4.476 0h2.954A11.927 11.927 0 009 3.186 11.929 11.929 0 007.522 8.25h.001zm3.194-5a13.425 13.425 0 011.263 5h2.973a6.006 6.006 0 00-4.236-5z" fill="currentColor"/></g><defs><clipPath id="hclip0_33_55458"><path fill="currentColor" d="M0 0h18v18H0z"/></clipPath></defs></svg><svg viewBox="0 0 16 16" id="icon-remove"><g clip-path="url(#iclip0_718_120118)"><path d="M2.667 5.333h10.667V14a.667.667 0 01-.667.667H3.334A.667.667 0 012.667 14V5.334zm1.334 1.334v6.667h8V6.667H4zM6 8h1.333v4H6.001V8zm2.666 0h1.334v4H8.667V8zm-4-4.667V2a.667.667 0 01.667-.667h5.333a.667.667 0 01.667.667v1.333h3.333v1.334H1.334V3.334h3.333zm1.334-.666v.667h4v-.667H6z" fill="currentColor"/></g><defs><clipPath id="iclip0_718_120118"><path fill="currentColor" d="M0 0h16v16H0z"/></clipPath></defs></svg><svg viewBox="0 0 34 34" id="icon-s-tg"><path fill-rule="evenodd" clip-rule="evenodd" d="M5.14 15.472c7.382-3.105 12.305-5.152 14.767-6.141C26.94 6.509 28.409 6.019 29.353 6c.35-.007.694.092.983.284.202.169.331.405.361.661.05.32.065.643.043.965-.38 3.875-2.031 13.242-2.87 17.57-.354 1.824-1.053 2.447-1.73 2.508-1.47.13-2.599-.939-4.015-1.84-2.23-1.41-3.488-2.279-5.652-3.665-2.5-1.596-.878-2.464.546-3.891.373-.374 6.848-6.064 6.976-6.58a.48.48 0 00-.118-.432.603.603 0 00-.524-.048c-.222.047-3.782 2.318-10.68 6.814-1.01.67-1.926.996-2.746.98-.904-.02-2.643-.495-3.937-.912-1.584-.497-2.834-.76-2.734-1.596.058-.438.686-.886 1.884-1.347z" fill="currentColor"/></svg><svg fill="currentColor" viewBox="0 0 24 24" id="icon-s-tg-round" xmlns="http://www.w3.org/2000/svg"><path fill-rule="evenodd" clip-rule="evenodd" d="M0 12c0 6.627 5.373 12 12 12s12-5.373 12-12S18.627 0 12 0 0 5.373 0 12zm9.8 5.5l.204-3.059 5.564-5.022c.244-.216-.053-.322-.377-.125l-6.868 4.332-2.966-.926c-.64-.196-.645-.636.144-.952L17.06 7.29c.528-.24 1.037.127.836.935l-1.969 9.277c-.137.659-.535.816-1.087.512l-2.999-2.215L10.4 17.2l-.014.013c-.161.157-.294.287-.586.287z" opacity=".6"/></svg><svg viewBox="0 0 34 34" id="icon-s-vb"><path d="M27.64 4.692c-.719-.663-3.632-2.768-10.12-2.796 0 0-7.652-.46-11.38 2.947-2.091 2.065-2.807 5.09-2.875 8.844-.068 3.753-.178 10.776 6.63 12.682v2.908s-.045 1.176.734 1.418c.94.289 1.494-.606 2.393-1.56.494-.52 1.176-1.301 1.688-1.902 4.657.39 8.234-.502 8.642-.635.94-.301 6.258-.98 7.123-8.008.883-7.252-.442-11.833-2.835-13.898zm.784 13.37c-.73 5.865-5.043 6.242-5.838 6.49-2.431.59-4.94.802-7.437.629 0 0-2.94 3.537-3.86 4.458a.495.495 0 01-.425.172c-.157-.04-.202-.224-.199-.497 0-.39.024-4.833.024-4.833-5.75-1.592-5.42-7.572-5.355-10.703.066-3.132.656-5.7 2.412-7.424C10.9 3.51 17.4 3.935 17.4 3.935c5.488.023 8.119 1.667 8.728 2.219 2.025 1.727 3.057 5.855 2.302 11.905l-.005.002z" fill="currentColor"/><path d="M20.19 13.884a.367.367 0 01-.366-.346c-.063-1.24-.648-1.85-1.845-1.912a.367.367 0 01-.348-.382.364.364 0 01.384-.346c1.568.083 2.46.983 2.54 2.601a.366.366 0 01-.347.382l-.018.003z" fill="currentColor"/><path d="M22.071 14.514a.369.369 0 01-.358-.375 4.214 4.214 0 00-1.095-3.09c-.762-.83-1.808-1.28-3.195-1.38a.368.368 0 01-.34-.391.364.364 0 01.392-.338c1.568.112 2.801.658 3.684 1.618a4.971 4.971 0 011.289 3.597.366.366 0 01-.377.359z" fill="currentColor"/><path d="M24 15.263a.367.367 0 01-.367-.362c-.018-2.203-.682-3.956-1.975-5.202a6.797 6.797 0 00-4.868-1.914.37.37 0 01-.338-.366.366.366 0 01.338-.365 7.533 7.533 0 015.38 2.104c1.44 1.397 2.177 3.324 2.195 5.723a.36.36 0 01-.363.366l-.003.016zM18.07 18.413a1.013 1.013 0 00.784-.3l.543-.676a1.186 1.186 0 011.508-.208c.463.261.912.546 1.346.853.407.302 1.246.997 1.249.997a1.04 1.04 0 01.222 1.35c-.3.517-.681.983-1.129 1.38-.32.291-.717.483-1.144.552a.72.72 0 01-.168 0 1.542 1.542 0 01-.486-.075v-.019c-.577-.16-1.541-.566-3.135-1.448a18.491 18.491 0 01-2.66-1.71c-.417-.322-.814-.67-1.19-1.04l-.041-.039-.04-.041-.039-.04-.042-.038c-.37-.375-.719-.77-1.045-1.184a18.637 18.637 0 01-1.761-2.627c-.886-1.597-1.307-2.554-1.456-3.121h-.018a1.52 1.52 0 01-.073-.484.703.703 0 010-.166c.068-.437.264-.844.562-1.17.4-.446.868-.826 1.387-1.125a1.05 1.05 0 011.354.219s.7.837 1 1.243c.301.406.617.866.879 1.327a1.179 1.179 0 01-.21 1.5l-.681.539a1.004 1.004 0 00-.298.78s1.011 3.81 4.782 4.77z" fill="currentColor"/></svg><svg fill="currentColor" viewBox="0 0 24 24" id="icon-s-vk-round" xmlns="http://www.w3.org/2000/svg"><path fill-rule="evenodd" clip-rule="evenodd" d="M12 0C5.373 0 0 5.373 0 12s5.373 12 12 12 12-5.373 12-12S18.627 0 12 0zm.977 15.788c-.119.125-.35.15-.35.15h-.765s-1.688.1-3.174-1.42c-1.622-1.657-3.054-4.945-3.054-4.945s-.082-.216.007-.32c.101-.117.376-.124.376-.124l1.829-.012s.172.027.295.117c.102.073.16.21.16.21s.295.734.686 1.398c.764 1.296 1.12 1.58 1.38 1.44.377-.202.264-1.832.264-1.832s.007-.59-.19-.854c-.153-.204-.441-.264-.568-.28-.104-.014.065-.249.285-.354.329-.158.91-.167 1.597-.16.535.005.689.038.898.087.485.115.47.484.438 1.279-.01.238-.022.514-.022.832 0 .072-.002.148-.004.227-.011.407-.024.874.25 1.047.14.089.482.013 1.339-1.415.406-.677.71-1.473.71-1.473s.067-.142.17-.203c.106-.062.25-.043.25-.043l1.924-.011s.578-.069.672.188c.098.269-.216.897-1.003 1.925-.746.977-1.109 1.336-1.075 1.654.024.232.26.442.713.854.945.862 1.198 1.315 1.26 1.424l.01.02c.424.69-.47.744-.47.744l-1.71.023s-.366.072-.85-.254c-.253-.17-.5-.449-.736-.714-.36-.405-.692-.78-.976-.69-.476.148-.462 1.155-.462 1.155s.004.216-.104.33z" opacity=".6"/></svg><svg viewBox="0 0 34 34" id="icon-s-wa"><path d="M23.3 19.73c-.345-.172-2.025-.994-2.338-1.108-.313-.115-.542-.171-.77.172-.227.338-.884 1.105-1.082 1.332-.201.223-.4.24-.74.086-.345-.172-1.448-.533-2.754-1.702-1.018-.91-1.7-2.028-1.902-2.372-.2-.343-.022-.533.149-.704.155-.155.345-.396.517-.6.167-.207.222-.345.34-.568.114-.24.056-.43-.029-.6-.086-.172-.77-1.857-1.056-2.528-.275-.67-.558-.585-.77-.585-.197-.017-.425-.017-.655-.017-.229 0-.599.085-.913.412-.313.343-1.197 1.168-1.197 2.836 0 1.667 1.226 3.283 1.397 3.523.17.224 2.412 3.661 5.843 5.14.818.343 1.456.55 1.953.72.818.26 1.564.223 2.154.138.658-.104 2.025-.826 2.31-1.633.292-.808.292-1.479.206-1.633-.085-.155-.31-.24-.653-.396m-6.24 8.529h-.018c-2.029 0-4.038-.55-5.793-1.581l-.412-.246-4.297 1.118 1.152-4.177-.274-.43A11.308 11.308 0 015.69 16.83c0-6.239 5.104-11.326 11.392-11.326 3.04 0 5.895 1.186 8.044 3.334a11.216 11.216 0 013.334 8.01c-.005 6.237-5.11 11.326-11.384 11.326m9.685-20.971c-2.612-2.525-6.05-3.952-9.71-3.952-7.542 0-13.683 6.112-13.686 13.627 0 2.402.629 4.744 1.827 6.812L3.25 30.75l7.259-1.893a13.82 13.82 0 006.543 1.658h.006c7.546 0 13.689-6.114 13.692-13.63 0-3.64-1.42-7.065-4.005-9.638" fill="currentColor"/></svg><svg viewBox="0 0 25 24" id="icon-search"><g clip-path="url(#oclip0_718_116941)"><path d="M18.531 16.617l4.283 4.282-1.415 1.415-4.282-4.283A8.96 8.96 0 0111.5 20c-4.968 0-9-4.032-9-9s4.032-9 9-9 9 4.032 9 9a8.96 8.96 0 01-1.969 5.617zm-2.006-.742A6.977 6.977 0 0018.5 11c0-3.868-3.133-7-7-7-3.868 0-7 3.132-7 7 0 3.867 3.132 7 7 7a6.977 6.977 0 004.875-1.975l.15-.15z" fill="currentColor"/></g><defs><clipPath id="oclip0_718_116941"><path fill="currentColor" transform="translate(.5)" d="M0 0h24v24H0z"/></clipPath></defs></svg><svg viewBox="0 0 16 16" id="icon-store"><g clip-path="url(#pclip0_718_120095)" fill="currentColor"><path d="M12 14.5H4A1.5 1.5 0 012.5 13V8a.5.5 0 111 0v5a.5.5 0 00.5.5h8a.5.5 0 00.5-.5V8a.5.5 0 011 0v5a1.5 1.5 0 01-1.5 1.5z"/><path d="M7.5 14.5H5a.5.5 0 01-.5-.5v-3A1.5 1.5 0 016 9.5h.5A1.5 1.5 0 018 11v3a.5.5 0 01-.5.5zm-2-1H7V11a.5.5 0 00-.5-.5H6a.5.5 0 00-.5.5v2.5zM12.5 8.5a2 2 0 01-2-2 .5.5 0 011 0 1 1 0 002 0v-.38L12.19 3.5H3.81L2.5 6.12v.38a1 1 0 002 0 .5.5 0 111 0 2 2 0 11-4 0V6a.5.5 0 01.055-.225l1.5-3A.5.5 0 013.5 2.5h9a.5.5 0 01.445.275l1.5 3A.5.5 0 0114.5 6v.5a2 2 0 01-2 2z"/><path d="M6.5 8.5a2 2 0 01-2-2 .5.5 0 111 0 1 1 0 002 0 .5.5 0 111 0 2 2 0 01-2 2z"/><path d="M9.5 8.5a2 2 0 01-2-2 .5.5 0 111 0 1 1 0 002 0 .5.5 0 011 0 2 2 0 01-2 2zM11 11H9.5a.5.5 0 010-1H11a.5.5 0 010 1z"/></g><defs><clipPath id="pclip0_718_120095"><path fill="currentColor" d="M0 0h16v16H0z"/></clipPath></defs></svg></svg>