<svg width="220" height="147" viewBox="0 0 220 147" fill="none" xmlns="http://www.w3.org/2000/svg"><path d="M44.052 103.465c-5.042-.2-9.168-1.58-12.393-4.143-.616-.49-2.083-1.957-2.575-2.576-1.308-1.645-2.197-3.246-2.79-5.022-1.826-5.467-.887-12.641 2.686-20.515 3.06-6.74 7.78-13.426 16.015-22.685 1.213-1.363 4.826-5.347 4.849-5.347.009 0-.188.34-.436.756-2.141 3.587-3.974 7.812-4.972 11.469-1.603 5.869-1.41 10.905.567 14.81 1.363 2.69 3.7 5.021 6.329 6.31 4.6 2.254 11.337 2.44 19.564.545.566-.131 28.633-7.582 62.37-16.557a75263.647 75263.647 0 0161.35-16.308c.009.007-78.382 33.551-119.076 50.954-6.444 2.755-8.168 3.45-11.197 4.514-7.745 2.72-14.683 4.018-20.29 3.795z" fill="#000"/></svg>