<svg width="220" height="147" viewBox="0 0 220 147" fill="none" xmlns="http://www.w3.org/2000/svg"><path d="M186.167 66.837h.115c.265 1.253.38 1.824.648 2.734l1.56 6.155h-4.568l1.56-6.155c.229-.91.382-1.481.685-2.734zm4.146 16.147h4.303l-5.403-19.19h-5.862l-5.442 19.19h4.072l1.217-4.293h5.899l1.216 4.293zm-21.729.264c2.36 0 4.644-.569 6.13-1.177v-9.61h-6.624v3.076h2.704v4.292c-.496.304-1.336.496-2.245.496-2.816 0-3.693-1.406-3.693-5.47v-2.474c0-4.025.836-6.002 3.424-6.002 1.789 0 2.401 1.216 2.441 2.51h4.072c-.045-3.383-2.478-5.471-6.514-5.471-5.635 0-7.687 3.265-7.687 8.55v2.812c-.039 5.735 1.904 8.47 7.991 8.47m-19.062-16.413h.116c.265 1.253.381 1.824.645 2.734l1.563 6.155h-4.568l1.56-6.155c.228-.91.38-1.481.684-2.734zm4.149 16.148h4.296l-5.399-19.19h-5.865l-5.436 19.19h4.072l1.216-4.294h5.897l1.219 4.293zm-20.553 0h4.072v-19.19h-4.072v19.19zm-11.187.264c4.527 0 6.734-2.091 6.848-6h-4.108c-.076 1.899-.687 3.076-2.625 3.076-2.206 0-3.041-1.556-3.041-5.545v-2.812c0-4.029.835-5.547 3.041-5.547 2.057 0 2.398 1.369 2.472 2.813h4.109c-.04-3.344-1.941-5.737-6.695-5.737-5.291 0-7.229 3.305-7.229 8.47v2.813c0 5.204 1.936 8.47 7.228 8.47zm-27.553-.264h3.617V71.853c0-1.558-.08-3.458-.156-5.016h.119c.569 1.975.873 3 1.405 4.481l4.226 11.667h5.936v-19.19h-3.616v10.68c0 1.4.04 3.265.077 5.05h-.114c-.304-1.332-.574-2.662-1.372-4.826l-3.957-10.903h-6.201v19.189h.036zm-16.593 0h11.074v-3.08h-7.002v-5.32h6.353v-3.112h-6.354v-4.636h6.736v-3.078h-10.81v19.223l.003.003zm-14.878 0h10.657v-3.08h-6.585v-16.11h-4.072v19.19zm-12.634-16.15h.115c.265 1.254.384 1.825.648 2.734l1.56 6.156H48.03l1.56-6.156c.227-.91.38-1.48.684-2.734m4.147 16.15h4.3l-5.404-19.19h-5.86l-5.443 19.19h4.072l1.217-4.294h5.9l1.22 4.293h-.002zm-24.927-2.927v-5.582h2.475c2.093 0 3.08.949 3.08 2.808 0 2.05-1.293 2.813-3.157 2.813h-2.398v-.04zm0-8.51v-4.825h2.552c1.861 0 2.661.833 2.661 2.393 0 1.56-.908 2.433-2.623 2.433l-2.59-.002zm-4.072 11.437h7.192c4.033 0 6.505-1.448 6.505-5.434 0-2.547-1.48-4.292-4.223-4.561v-.111c2.433-.418 3.882-1.748 3.882-4.293 0-3.308-1.904-4.79-5.974-4.79h-7.42v19.189h.038z" fill="#000"/></svg>