<svg width="220" height="147" viewBox="0 0 220 147" fill="none" xmlns="http://www.w3.org/2000/svg"><path d="M171.257 122.18c-6.767 0-10.78-3.463-11.087-8.45h6.47c0 1.662.921 3.875 4.924 4.013 2.774 0 4.309-1.662 4.309-2.912-.307-1.938-2.774-2.076-5.231-2.499a25.322 25.322 0 01-6.469-1.652 6.626 6.626 0 01-3.389-5.962c0-4.436 3.706-7.899 10.165-7.899 6.163 0 10.166 3.187 10.462 8.037h-6.152c0-1.239-.307-3.325-4.002-3.325-2.468 0-4.003.413-4.31 2.213 0 2.499 5.231 2.362 9.233 3.325 3.696.975 6.163 3.325 6.163 6.661 0 6.099-4.924 8.45-11.086 8.45zM53.361 81.26l21.242-12.337L85.997 88.47H57.364m40.663 32.974V96.772z" fill="#000"/><path d="M98.027 121.444V96.772" stroke="#000" stroke-width="5"/><path d="M43.501 109.474c0 3.875 3.389 7.062 7.074 7.062a7.025 7.025 0 007.084-7.062c0-3.738-3.071-7.063-7.084-7.063a7.325 7.325 0 00-7.074 7.063zm6.767 12.749c-6.767 0-12.612-5.687-12.612-12.749 0-7.063 5.845-12.612 12.612-12.612 2.774 0 5.241.7 7.39 2.213v-1.938h6.163v24.524H57.66v-1.525c-1.843 1.388-4.617 2.087-7.391 2.087zm82.215-33.758L102.93 36.918l21.242-12.474 36.944 64.02m-89.288 21.009a7.032 7.032 0 007.084 7.063c3.685 0 7.084-3.187 7.084-7.063a7.337 7.337 0 00-7.084-7.062 7.114 7.114 0 00-7.084 7.062zm6.777 12.749a12.598 12.598 0 01-12.622-12.749c0-7.062 5.538-12.611 12.622-12.611 2.764 0 5.231.699 7.391 2.213V88.687h6.152v32.974h-6.152v-1.525a13.393 13.393 0 01-7.39 2.086zM78.3 59.227L99.85 47.04l23.708 41.423h-22.48v6.1h-6.152v-6.1m83.425 6.292a3.178 3.178 0 01-3.081-3.05 3.172 3.172 0 013.081-3.05 2.996 2.996 0 013.081 3.05 3.003 3.003 0 01-1.896 2.842c-.377.149-.78.22-1.185.208zm0-5.676c-1.546 0-2.467 1.239-2.467 2.626 0 1.387.921 2.637 2.467 2.637 1.535 0 2.457-1.25 2.457-2.637s-.922-2.626-2.457-2.626z" fill="#000"/><path d="M178.987 93.378l-.615-1.387h-.614v1.387h-.466v-3.325h1.388c.307 0 .921.424.921.974a.99.99 0 01-.614.964l.614 1.387m-1.229-2.901h-.614v1.1h.614c.615 0 .615-.137.615-.55 0-.286 0-.55-.615-.55zm-40.682 18.996a7.032 7.032 0 007.084 7.063c3.696 0 7.073-3.187 7.073-7.063a7.318 7.318 0 00-7.073-7.063 7.12 7.12 0 00-7.084 7.063zm6.766 12.749a12.598 12.598 0 01-12.611-12.749c0-7.063 5.538-12.611 12.611-12.611 2.775 0 5.242.699 7.391 2.213v-1.938h5.856v24.524h-5.856v-1.525a13.34 13.34 0 01-7.391 2.086zm-35.07-12.749c0 3.876 3.389 7.063 7.084 7.063a7.032 7.032 0 007.084-7.063 7.118 7.118 0 00-7.084-7.063 7.331 7.331 0 00-7.084 7.063zm14.168-20.786h6.152v32.974h-6.152v-1.525a11.726 11.726 0 01-7.084 2.086c-7.084 0-12.929-5.686-12.929-12.749 0-7.063 5.845-12.611 12.929-12.611 2.764 0 5.231.699 7.084 2.213V88.687z" fill="#000"/></svg>