<svg width="220" height="147" viewBox="0 0 220 147" fill="none" xmlns="http://www.w3.org/2000/svg"><path d="M149.17 61.006c13.596-5.982 22.475-14.965 22.959-24.93 0 0-3.59-2.765-15.18-7.03-10.177-3.745-17.941-4.602-17.941-4.602l.035 22.204c0 3.317-1.331 6.704-3.846 9.702-7.693-1.857-16.194-2.9-25.112-2.903h-.006c-8.922.003-17.434 1.048-25.135 2.909-2.515-2.998-3.85-6.388-3.85-9.708l.034-22.204s-7.76.857-17.943 4.602c-11.59 4.265-15.173 7.03-15.173 7.03.48 9.968 9.362 18.954 22.974 24.935-13.6 5.982-22.478 14.965-22.96 24.927 0 0 3.588 2.768 15.177 7.03 10.18 3.745 17.942 4.602 17.942 4.602l-.036-22.203c0-3.318 1.332-6.708 3.85-9.703 7.692 1.86 16.191 2.9 25.108 2.9h.004c8.926 0 17.439-1.042 25.138-2.91 2.514 3 3.846 6.395 3.846 9.713l-.029 22.203s7.761-.857 17.941-4.602c11.59-4.262 15.176-7.03 15.176-7.03-.483-9.968-9.365-18.954-22.973-24.933m-39.097 4.997h-.009l-.254-.006c-8.051 0-14.614-1.971-19.428-4.984 4.814-3.02 11.381-4.993 19.447-4.993l.247-.004h.012l.254.004c8.054 0 14.615 1.97 19.429 4.984-4.814 3.016-11.381 4.993-19.444 4.993m-80.112 56.173c-3.9 0-3.969-2.974-3.969-4.121v-5.411c0-.329-.027-.765.67-.765h2.015c.654 0 .612.467.612.765v5.411c0 .385.072 1.419 1.49 1.419h3.381c1.391 0 1.472-1.033 1.472-1.419v-5.411c0-.298-.039-.765.612-.765h2.031c.737 0 .672.467.672.765v5.411c0 1.147-.069 4.121-3.983 4.121m13.676-.653c-1.377-1.855-3.342-4.19-5.345-6.656v6.587c0 .287.071.723-.613.723h-1.881c-.681 0-.6-.436-.6-.723v-8.809c0-.299-.03-.765.6-.765h3.667c1.036 0 2.511 2.088 3.48 3.465.746 1.05 2.125 2.63 3.051 3.816v-6.516c0-.299-.042-.765.642-.765h2.043c.657 0 .615.466.615.765v9.532H50.79c-.806 0-1.161.054-1.896-.654zm15.502-2.055c1.648 0 1.529-1.582 1.529-2.305 0-2.428-.684-2.524-1.774-2.524H58.97v4.829h5.426zm-8.607 2.711v-10.281h9.088c.555 0 4.276-.066 4.276 3.843 0 3.998.436 6.438-4.195 6.438H60.06l-1.064-2.153v2.153m13.717-10.215h8.37c.71 0 .615.463.615 1.323 0 .8.108 1.251-.615 1.251H74.47c-.177 0-.774-.095-.774.531 0 .628-.122.876.544.876h5.85s.845 1.609.94 1.881c.138.245.123.478-.394.478H74.58l-.94-1.828v2.699c0 .628.56.505.722.505h6.872c.683 0 .627.475.627 1.251 0 .837.056 1.296-.627 1.296h-8.7c-.722 0-2.138-.217-2.138-2.478v-5.674c0-.585.314-2.111 2.318-2.111m18.538 2.646h-4.076c-.678 0-.655.233-.655.439v1.84h4.2c2.033 0 2.033-.508 2.033-1.039 0-1.063-.08-1.24-1.502-1.24zm-7.292-2.714h9.161c1.228 0 3.01-.012 3.01 3.3 0 2.168-.46 2.275-1.442 2.944 1.652.287 1.433 2.398 1.433 3.491 0 .558-.203.547-.37.547h-2.684c-.562 0-.425-.887-.425-1.35 0-1.27-.707-1.213-.982-1.213h-3.954c-.38-.657-1.116-2.129-1.116-2.129v4.267c0 .371-.371.425-.506.425h-2.696c.146 0-.278.027-.278-.344v-9.051c0-.642.451-.888.848-.888m26.858 2.916l-1.69 3.082.149.15h3.151l.164-.15c-.111-.232-1.473-2.822-1.61-3.097l-.164.015zm1.09-2.846c.669 0 1.32.299 2.031 1.675.48.98 3.808 6.992 4.5 8.249v.341h-3.464l-.997-1.802h-4.211s-.708-1.621-.911-2.069c-.26.421-1.651 3.067-2.133 3.87h-3.473v-.218c.708-1.334 5.549-10.046 5.549-10.046m18.725 2.645h-4.076c-.681 0-.654.233-.654.439v1.84h4.199c2.033 0 2.033-.508 2.033-1.039 0-1.063-.08-1.24-1.502-1.24zm-7.292-2.714h9.162c1.227 0 3.013-.012 3.013 3.3 0 2.168-.46 2.275-1.446 2.944 1.649.287 1.431 2.398 1.431 3.491 0 .558-.203.547-.367.547h-2.685c-.562 0-.424-.887-.424-1.35 0-1.27-.708-1.213-.983-1.213h-3.953c-.383-.657-1.12-2.129-1.12-2.129v4.267c0 .371-.364.425-.502.425h-2.7c.15 0-.271.027-.271-.344v-9.051c0-.642.451-.888.844-.888m20.18 10.281a639.889 639.889 0 00-3.861-7.128v6.406c0 .286.039.722-.609.722h-1.858c-.695 0-.642-.435-.642-.722v-8.81c0-.298-.039-.75.642-.75h3.205c.477 0 1.156-.11 1.923 1.419.573 1.224 1.789 3.766 2.618 5.113.858-1.347 2.1-3.889 2.673-5.113.75-1.529 1.416-1.419 1.947-1.419h3.19c.657 0 .588.452.588.75v8.81c0 .286.093.722-.588.722h-1.866c-.682 0-.628-.435-.628-.722v-6.406c-1.293 2.314-3.177 5.847-3.888 7.128m17.194-2.619c1.544 0 1.487-1.591 1.487-2.657 0-.956.218-2.455-1.786-2.455h-3.398c-1.989 0-1.756 1.499-1.756 2.455 0 1.066-.096 2.657 1.445 2.657h4.008zm-6.107 2.646c-3.04 0-2.906-3.26-2.906-5.369 0-1.938-.217-4.964 3.587-4.993h6.752c3.816 0 3.568 3.067 3.568 4.993 0 2.108.153 5.369-2.932 5.369m8.016-.027c-3.903 0-3.969-2.974-3.969-4.121v-5.411c0-.329-.027-.765.669-.765h2.019c.651 0 .612.467.612.765v5.411c0 .385.069 1.419 1.487 1.419h3.381c1.391 0 1.472-1.033 1.472-1.419v-5.411c0-.298-.042-.765.612-.765h2.031c.737 0 .672.467.672.765v5.411c0 1.147-.069 4.121-3.984 4.121m13.441-7.566h-4.077c-.681 0-.654.233-.654.439v1.84h4.199c2.034 0 2.034-.508 2.034-1.039 0-1.063-.081-1.24-1.502-1.24zm-7.296-2.714h9.165c1.227 0 3.016-.012 3.016 3.3 0 2.168-.465 2.275-1.448 2.944 1.651.287 1.433 2.398 1.433 3.491 0 .558-.203.547-.37.547h-2.685c-.558 0-.424-.887-.424-1.35 0-1.27-.707-1.213-.979-1.213h-3.957c-.38-.657-1.117-2.129-1.117-2.129v4.267c0 .371-.37.425-.505.425h-2.696c.146 0-.275.027-.275-.344v-9.051c0-.642.451-.887.842-.887z" fill="#000"/></svg>