<svg width="220" height="147" viewBox="0 0 220 147" fill="none" xmlns="http://www.w3.org/2000/svg"><path d="M116.594 31.555c-.554.082-1.087 2.121-2.157 3.184-.781.765-1.76.719-2.277 1.667-.198.352-.134.958-.356 1.536-.439 1.162-1.975 1.265-1.975 2.53-.006 1.365 1.28 1.625 2.397 2.596.871.778.954 1.316 2.008 1.695.901.305 2.24-.694 3.446-.335.989.294 1.936.506 2.16 1.523.198.938-.014 2.39-1.214 2.222-.405-.046-2.161-.635-4.313-.406-2.602.296-5.569 1.144-5.86 4.045-.16 1.619 1.846 3.53 3.782 3.14 1.336-.261.705-1.84 1.431-2.606.956-.983 6.372 3.428 11.403 3.428 2.119 0 3.695-.536 5.26-2.175.147-.126.325-.393.551-.411.214.018.585.228.708.317 4.052 3.257 7.117 9.793 22.013 9.868 2.097.012 4.481 1.013 6.431 2.79 1.738 1.607 2.753 4.109 3.742 6.645 1.492 3.805 4.161 7.508 8.213 11.626.22.222 3.556 2.814 3.823 3.007.041.03.287.614.201.94-.098 2.472-.457 9.654 4.898 9.98 1.309.066.967-.855.967-1.487-.004-1.252-.231-2.495.427-3.777.901-1.761-1.912-2.572-1.831-6.381.059-2.84-2.327-2.356-3.537-4.52-.697-1.253-1.317-1.918-1.273-3.451.273-8.628-1.836-14.298-2.886-15.691-.821-1.05-1.5-1.467-.751-1.954 4.471-2.954 5.484-5.698 5.484-5.698 2.378-5.587 4.515-10.689 7.462-12.936.592-.465 2.115-1.601 3.049-2.046 2.751-1.297 4.197-2.084 4.997-2.86 1.262-1.231 2.263-3.8 1.05-5.358-1.506-1.92-4.112-.397-5.26.286-8.217 4.876-9.428 13.477-12.274 18.417-2.27 3.946-5.962 6.846-9.263 7.083-2.472.183-5.142-.317-7.797-1.484-6.459-2.832-9.992-6.487-10.83-7.134-1.734-1.34-15.204-14.565-26.121-15.105 0 0-1.355-2.714-1.695-2.757-.798-.103-1.615 1.62-2.201 1.82-.551.182-1.476-1.864-2.032-1.773zm-48.053 78.931c-1.027-.024-1.9-.867-1.9-1.908l.004-34.05H55.422v37.531c0 1.841 1.49 3.341 3.32 3.341h19.612c1.841 0 3.314-1.5 3.314-3.341V74.528H70.456l-.009 34.05c0 1.041-.873 1.884-1.906 1.908zm37.571-35.958H89.13a3.654 3.654 0 00-3.65 3.665V115.4h11.234V81.27a1.888 1.888 0 011.899-1.873c1.047 0 1.889.808 1.912 1.845V115.4h11.186V81.242c.014-1.037.855-1.845 1.902-1.845 1.036 0 1.895.828 1.902 1.873v34.13h11.233V78.193a3.659 3.659 0 00-3.651-3.665h-16.985M47.938 105.13H36.6v10.27H25.385V74.528h22.624c2.025 0 3.606 1.646 3.606 3.682v23.236a3.682 3.682 0 01-1.074 2.606 3.666 3.666 0 01-2.604 1.078zm-7.532-23.788a1.92 1.92 0 00-1.9-1.945H36.6v20.672h1.906c.99 0 1.91-.787 1.9-1.92V81.34z" fill="#000"/><path d="M145.576 115.399v-10.261h-3.813v10.261h-11.21V78.192a3.655 3.655 0 013.649-3.665h18.937a3.654 3.654 0 013.651 3.665V115.4h-11.214zm0-15.323v-18.82c-.027-1.04-.864-1.84-1.911-1.84a1.898 1.898 0 00-1.902 1.87v18.79h3.813z" fill="#000"/></svg>