<svg width="220" height="147" viewBox="0 0 220 147" fill="none" xmlns="http://www.w3.org/2000/svg"><path d="M129.279 24.445H150.1c.004 1.564-.008 3.127.007 4.691-1.763.077-3.566.275-5.19 1.012-1.646.74-3.027 2.087-3.738 3.754a129011.61 129011.61 0 00-25.301 59.52c-.146.325-.264.662-.434.977-3.018-.036-6.038-.005-9.056-.016-1.332-2.647-2.643-5.305-3.986-7.946-1.54 4.126-3.089 8.247-4.628 12.372l29.872.001c1.823.025 3.7-.052 5.406-.764 2.834-1.139 5.091-3.34 6.927-5.725 2.217-2.891 3.899-6.145 5.398-9.453 1.681-.014 3.362.006 5.042.003a5474.242 5474.242 0 01-9.604 20.399H71.98c.559-1.459 1.09-2.929 1.69-4.373.036-.149.221-.111.334-.125 2.864-.022 5.748-.133 8.559-.73 1.463-.342 2.976-.8 4.102-1.844.595-.568.78-1.397.977-2.162 2.71-7.252 5.424-14.503 8.136-21.753-5.732-12.212-11.482-24.416-17.216-36.627-.462-1.068-1.071-2.126-2.03-2.821-1.984-1.486-4.562-1.674-6.95-1.77-.003-1.75 0-3.499-.002-5.249 8.056-.003 16.112-.002 24.168 0 .001 1.75.002 3.5 0 5.25-1.05.066-2.165.05-3.116.569a1.168 1.168 0 00-.627 1.293c.149.835.809 1.431 1.143 2.186 3.402 7.327 6.804 14.656 10.216 21.98 1.71-4.78 3.419-9.56 5.136-14.338.252-.664.341-1.431.054-2.1-.226-.527-.738-.853-1.243-1.072-.982-.405-2.061-.401-3.102-.476a358.339 358.339 0 011.617-4.423c.127-.082.305-.019.451-.04 8.174.006 16.349 0 24.524.004-.565 1.484-1.127 2.968-1.686 4.454-1.968.09-3.998.14-5.844.91-.847.354-1.647.895-2.147 1.679-.347.574-.563 1.215-.796 1.84-3.415 9.315-6.862 18.617-10.239 27.946 1.871 4.228 3.821 8.42 5.729 12.63 6.928-16.361 13.855-32.725 20.792-49.084.468-.983 1.229-1.881 1.288-3.013.058-.886-.599-1.65-1.36-2.013-1.641-.758-3.485-.795-5.259-.859-.002-1.565-.002-3.13 0-4.694zm12.6 88.098c2.187 2.265 4.357 4.546 6.524 6.831-.004-2.124.009-4.249.007-6.372.374.001.749-.003 1.124-.009v9.096c-2.189-2.254-4.346-4.538-6.525-6.804.003 2.137-.005 4.275-.006 6.413-.375.003-.75.002-1.124.002-.001-3.053-.002-6.105 0-9.157zm-63.679.312c2.41-.371 4.96 1.516 5.175 3.974.202 1.406-.343 2.872-1.373 3.84-1.692 1.656-4.736 1.626-6.379-.089a4.442 4.442 0 01-1.34-3.338c.024-2.154 1.805-4.078 3.917-4.387zm.001 1.113c-1.403.229-2.544 1.461-2.74 2.857-.268 1.586.71 3.293 2.242 3.811 1.34.506 2.971.029 3.831-1.115 1.113-1.395.925-3.648-.444-4.807-.77-.699-1.882-.93-2.889-.746zm17.404-.644c1.234-.928 3.252-.544 3.965.857l-.893.505c-.536-.837-1.84-1.042-2.56-.331-.305.223-.272.631-.24.966.088.437.553.622.897.828.884.465 1.947.734 2.569 1.578.693.942.579 2.345-.177 3.218-.791.956-2.236 1.189-3.342.688-.848-.419-1.372-1.305-1.542-2.213.38-.09.76-.173 1.141-.258.039.828.682 1.665 1.556 1.68 1.18.129 2.119-1.406 1.431-2.384-.733-.999-2.148-1.014-2.993-1.877-.994-.813-.894-2.565.188-3.257zm40.293-.475c1.58-.198 3.211.531 4.181 1.78 1.398 1.749 1.174 4.54-.485 6.044-.947.937-2.34 1.322-3.648 1.184-1.293-.085-2.502-.81-3.248-1.859-.804-1.118-1.012-2.613-.632-3.928.497-1.704 2.082-2.999 3.832-3.221zm-.193 1.134c-1.741.297-2.986 2.151-2.68 3.876.193 1.659 1.767 3.01 3.432 2.978 1.136.019 2.219-.624 2.831-1.566.931-1.348.686-3.34-.513-4.449-.784-.795-1.996-1.063-3.07-.839zm-65.22-.987c.36-.002.719-.002 1.078 0 .001 2.57-.001 5.141.001 7.711.893.002 1.785 0 2.677.001.002.33.002.66.001.991-1.253.001-2.505.002-3.757 0v-8.703zm13.761.007c.38-.003.761-.002 1.143-.001.003 1.712-.005 3.426.004 5.139.017.753.11 1.581.643 2.161.847.831 2.511.712 3.102-.365.299-.506.386-1.105.378-1.684-.007-1.75-.007-3.5-.006-5.251.38-.002.761-.001 1.142 0 0 1.786.004 3.573-.001 5.359.002.811-.139 1.669-.657 2.32-1.115 1.544-3.698 1.632-4.919.174-.58-.608-.819-1.464-.827-2.288-.005-1.855 0-3.71-.002-5.564zm7.812-.007c.374-.004.75-.003 1.125-.001v8.705c-.375 0-.75.001-1.126-.002.002-2.9.002-5.801 0-8.702zm11.271.008c.412-.011.826-.011 1.239-.009a969.557 969.557 0 012.565 6.357c.847-2.114 1.719-4.219 2.547-6.34.424-.036.849-.011 1.274-.017a2750.62 2750.62 0 01-3.809 9.227c-1.298-3.062-2.549-6.144-3.816-9.218zm8.14-.01c.375.005.749.009 1.125.008.013 1.686-.002 3.373.012 5.06.026.8.088 1.708.699 2.302.706.604 1.83.641 2.583.104.438-.312.679-.83.774-1.346.15-.889.096-1.793.106-2.69.006-1.143.007-2.286.005-3.428.361-.004.722-.003 1.083-.002.017 1.585.003 3.169.008 4.754.025.983-.007 2.05-.605 2.88-1.047 1.511-3.459 1.674-4.785.446-.663-.613-.996-1.518-1.001-2.411-.01-1.893-.002-3.785-.004-5.677zm7.8.008c.391.001.782-.003 1.174-.007v8.704h-1.18c-.004-2.899.01-5.798.006-8.697zm1.876 0c3.51.003 7.018-.006 10.527-.005v1.042c-.673.003-1.345 0-2.017.001-.003 2.553-.001 5.106-.001 7.659h-1.174c-.002-2.553.007-5.106-.004-7.659-1.378.002-2.756-.001-4.133.001-.002 2.553 0 5.105-.001 7.658h-1.077c-.001-2.553.001-5.105-.001-7.658-.707-.002-1.412.001-2.119-.002v-1.037z" fill="#000"/></svg>